<svg width="62" height="62" viewBox="0 0 62 62" fill="none" xmlns="http://www.w3.org/2000/svg">
<path fill-rule="evenodd" clip-rule="evenodd" d="M54 31C54 43.7025 43.7025 54 31 54C25.9952 54 21.3638 52.4015 17.5884 49.6871L49.6871 17.5884C52.4015 21.3638 54 25.9952 54 31ZM55.3997 11.8758C59.5344 17.1437 62 23.7839 62 31C62 48.1208 48.1208 62 31 62C23.7839 62 17.1437 59.5344 11.8758 55.3997L7.82843 59.4471L2.17157 53.7902L6.26826 49.6935C2.33394 44.4965 0 38.0208 0 31C0 13.8792 13.8792 0 31 0C38.0208 0 44.4965 2.33394 49.6935 6.26826L53.7904 2.17143L59.4472 7.82829L55.3997 11.8758ZM11.9985 43.9633L43.9633 11.9985C40.2722 9.47554 35.8084 8 31 8C18.2975 8 8 18.2975 8 31C8 35.8084 9.47554 40.2722 11.9985 43.9633Z" fill="black" fill-opacity="0.4"/>
</svg>
